<svg width="24" height="24" viewBox="0 0 24 24" fill="none" xmlns="http://www.w3.org/2000/svg">
<path d="M9 16C8.44772 16 8 16.4477 8 17C8 17.5523 8.44772 18 9 18V16ZM19 18C19.5523 18 20 17.5523 20 17C20 16.4477 19.5523 16 19 16V18ZM5.00195 17H6.00195C6.00195 16.4477 5.55424 16 5.00195 16V17ZM5.00195 17.002L5.00928 18.002C5.55869 17.9979 6.00195 17.5514 6.00195 17.002H5.00195ZM5 17.002H4C4 17.2685 4.10636 17.524 4.29549 17.7117C4.48461 17.8994 4.74085 18.0039 5.00732 18.002L5 17.002ZM5 17V16C4.44772 16 4 16.4477 4 17H5ZM9 11C8.44772 11 8 11.4477 8 12C8 12.5523 8.44772 13 9 13V11ZM19 13C19.5523 13 20 12.5523 20 12C20 11.4477 19.5523 11 19 11V13ZM5.00195 12H6.00195C6.00195 11.4477 5.55424 11 5.00195 11V12ZM5.00195 12.002L5.00928 13.002C5.55869 12.9979 6.00195 12.5514 6.00195 12.002H5.00195ZM5 12.002H4C4 12.2685 4.10636 12.524 4.29549 12.7117C4.48461 12.8994 4.74085 13.0039 5.00732 13.002L5 12.002ZM5 12V11C4.44772 11 4 11.4477 4 12H5ZM9 6C8.44772 6 8 6.44772 8 7C8 7.55228 8.44772 8 9 8V6ZM19 8C19.5523 8 20 7.55228 20 7C20 6.44772 19.5523 6 19 6V8ZM5.00195 7H6.00195C6.00195 6.44772 5.55424 6 5.00195 6V7ZM5.00195 7.002L5.0092 8.00197C5.55864 7.99799 6.00195 7.55146 6.00195 7.002H5.00195ZM5 7.00201H4C4 7.26849 4.10635 7.52394 4.29546 7.71168C4.48457 7.89942 4.74078 8.00392 5.00725 8.00199L5 7.00201ZM5 7V6C4.44772 6 4 6.44772 4 7H5ZM9 18H19V16H9V18ZM4.00195 17V17.002H6.00195V17H4.00195ZM4.99463 16.002L4.99268 16.002L5.00732 18.002L5.00928 18.002L4.99463 16.002ZM6 17.002V17H4V17.002H6ZM5 18H5.00195V16H5V18ZM9 13H19V11H9V13ZM4.00195 12V12.002H6.00195V12H4.00195ZM4.99463 11.002L4.99268 11.002L5.00732 13.002L5.00928 13.002L4.99463 11.002ZM6 12.002V12H4V12.002H6ZM5 13H5.00195V11H5V13ZM9 8H19V6H9V8ZM4.00195 7V7.002H6.00195V7H4.00195ZM4.9947 6.00203L4.99275 6.00204L5.00725 8.00199L5.0092 8.00197L4.9947 6.00203ZM6 7.00201V7H4V7.00201H6ZM5 8H5.00195V6H5V8Z" fill="white"/>
</svg>
