<svg width="24" height="24" viewBox="0 0 24 24" fill="none" xmlns="http://www.w3.org/2000/svg">
<path d="M9 11H10C10 10.4477 9.55228 10 9 10V11ZM3 20H2C2 20.5523 2.44772 21 3 21V20ZM3.10899 11.546L4 12L3.10899 11.546ZM3.5459 11.109L3.99989 12L3.5459 11.109ZM21 20L21 21C21.5523 21 22 20.5523 22 20H21ZM15 20V21H15L15 20ZM15 8V7C14.4477 7 14 7.44772 14 8H15ZM20.8906 8.54602L19.9996 9.00001L20.8906 8.54602ZM20.4544 8.10899L20.9084 7.21799L20.4544 8.10899ZM9.10899 4.54602L10 5.00001L9.10899 4.54602ZM9.5459 4.10899L9.99989 5L9.5459 4.10899ZM14.8906 4.54602L13.9996 5.00001V5.00001L14.8906 4.54602ZM14.4544 4.10899L14.9084 3.21799L14.4544 4.10899ZM8 11V20H10V11H8ZM9 19H3V21H9V19ZM4 20V12.6H2V20H4ZM4.59961 12H9V10H4.59961V12ZM4 12.6C4 12.3034 4.00078 12.1412 4.0103 12.0246C4.01887 11.9197 4.0293 11.9425 4 12L2.21799 11.092C2.07969 11.3634 2.03562 11.6332 2.01695 11.8618C1.99922 12.0787 2 12.3365 2 12.6H4ZM4.59961 10C4.3361 10 4.07836 9.99922 3.86149 10.0169C3.63285 10.0356 3.36325 10.0797 3.09191 10.218L3.99989 12C3.94246 12.0293 3.91968 12.0189 4.02442 12.0103C4.14091 12.0008 4.30307 12 4.59961 12V10ZM4 12L3.99989 12L3.09191 10.218C2.71533 10.4099 2.4096 10.716 2.21799 11.092L4 12ZM20 9.59998V20H22V9.59998H20ZM21 19L15 19L15 21L21 21L21 19ZM16 20V8H14V20H16ZM15 9H19.4V7H15V9ZM22 9.59998C22 9.33609 22.0007 9.07834 21.9828 8.86119C21.964 8.6324 21.9197 8.36304 21.7816 8.09203L19.9996 9.00001C19.9705 8.94291 19.9809 8.9205 19.9896 9.0252C19.9991 9.14154 20 9.30381 20 9.59998H22ZM19.4 9C19.6965 9 19.8589 9.00078 19.9756 9.01031C20.0808 9.01889 20.058 9.02936 20.0004 9L20.9084 7.21799C20.6368 7.07963 20.3669 7.0356 20.1384 7.01694C19.9214 6.99922 19.6635 7 19.4 7V9ZM21.7816 8.09203C21.5907 7.71737 21.2863 7.41058 20.9084 7.21799L20.0004 9L19.9996 9.00001L21.7816 8.09203ZM14 5.59998V20H16V5.59998H14ZM15 19H9V21H15V19ZM10 20V5.59998H8V20H10ZM10.5996 5H13.3996V3H10.5996V5ZM10 5.59998C10 5.30345 10.0008 5.1412 10.0103 5.02463C10.0189 4.91974 10.0293 4.94251 10 5.00001L8.21799 4.09203C8.07969 4.36344 8.03562 4.63316 8.01695 4.86176C7.99922 5.07867 8 5.33645 8 5.59998H10ZM10.5996 3C10.3361 3 10.0784 2.99922 9.86149 3.01695C9.63285 3.03564 9.36325 3.07973 9.09191 3.21799L9.99989 5C9.94246 5.02926 9.91968 5.01886 10.0244 5.0103C10.1409 5.00078 10.3031 5 10.5996 5V3ZM10 5.00001L9.99989 5L9.09191 3.21799C8.71533 3.40987 8.4096 3.71596 8.21799 4.09203L10 5.00001ZM16 5.59998C16 5.33609 16.0007 5.07834 15.9828 4.86119C15.964 4.6324 15.9197 4.36304 15.7816 4.09203L13.9996 5.00001C13.9705 4.94291 13.9809 4.9205 13.9896 5.0252C13.9991 5.14154 14 5.30381 14 5.59998H16ZM13.3996 5C13.6961 5 13.8586 5.00078 13.9755 5.01031C14.0809 5.01891 14.0581 5.02942 14.0004 5L14.9084 3.21799C14.6367 3.07958 14.3666 3.03558 14.1381 3.01694C13.9211 2.99922 13.6632 3 13.3996 3V5ZM15.7816 4.09203C15.5907 3.71737 15.2864 3.41058 14.9084 3.21799L14.0004 5L13.9996 5.00001L15.7816 4.09203Z" fill="white"/>
</svg>
