<svg width="24" height="24" viewBox="0 0 24 24" fill="none" xmlns="http://www.w3.org/2000/svg">
<path d="M4 20H3C3 20.2652 3.10536 20.5196 3.2929 20.7071C3.48043 20.8946 3.73479 21 4.00001 21L4 20ZM4 16L3.29289 15.2929C3.10536 15.4804 3 15.7348 3 16H4ZM14.8686 5.13134L14.1615 4.42423L14.1615 4.42423L14.8686 5.13134ZM17.1313 5.13134L16.4242 5.83845V5.83845L17.1313 5.13134ZM18.8686 6.8686L19.5757 6.16149V6.16149L18.8686 6.8686ZM18.8686 9.13134L18.1615 8.42423V8.42423L18.8686 9.13134ZM8 20L8.00001 21C8.26522 21 8.51957 20.8946 8.70711 20.7071L8 20ZM19.5369 7.691L20.4879 7.38198L19.5369 7.691ZM19.5369 8.30895L18.5858 7.99994L19.5369 8.30895ZM15.691 4.46313L15.382 3.51207V3.51207L15.691 4.46313ZM16.3091 4.46313L16.6181 3.51207V3.51207L16.3091 4.46313ZM12.7071 7.29289C12.3166 6.90236 11.6834 6.90236 11.2929 7.29289C10.9024 7.68341 10.9024 8.31658 11.2929 8.7071L12.7071 7.29289ZM15.2929 12.7071C15.6834 13.0976 16.3166 13.0976 16.7071 12.7071C17.0976 12.3166 17.0976 11.6834 16.7071 11.2929L15.2929 12.7071ZM5 20V16H3V20H5ZM4.70711 16.7071L15.5757 5.83845L14.1615 4.42423L3.29289 15.2929L4.70711 16.7071ZM16.4242 5.83845L18.1615 7.57571L19.5757 6.16149L17.8385 4.42423L16.4242 5.83845ZM18.1615 8.42423L7.29289 19.2929L8.70711 20.7071L19.5757 9.83845L18.1615 8.42423ZM7.99999 19L3.99999 19L4.00001 21L8.00001 21L7.99999 19ZM18.1615 7.57571C18.3712 7.78538 18.4854 7.90068 18.5611 7.98986C18.6292 8.07014 18.6058 8.06142 18.5858 8.00002L20.4879 7.38198C20.3938 7.09225 20.2342 6.87034 20.0858 6.6955C19.9449 6.52957 19.7621 6.34784 19.5757 6.16149L18.1615 7.57571ZM19.5757 9.83845C19.7621 9.6521 19.9449 9.47036 20.0858 9.30444C20.2342 9.12959 20.3938 8.90769 20.4879 8.61797L18.5858 7.99994C18.6058 7.93855 18.6292 7.92983 18.5611 8.01009C18.4854 8.09927 18.3712 8.21456 18.1615 8.42423L19.5757 9.83845ZM18.5858 8.00002L18.5858 7.99994L20.4879 8.61797C20.6184 8.21628 20.6184 7.78367 20.4879 7.38198L18.5858 8.00002ZM15.5757 5.83845C15.7854 5.62878 15.9007 5.5146 15.9899 5.4389C16.0701 5.37078 16.0614 5.39424 16 5.41418L15.382 3.51207C15.0923 3.6062 14.8704 3.76576 14.6955 3.91419C14.5296 4.05505 14.3479 4.23788 14.1615 4.42423L15.5757 5.83845ZM17.8385 4.42423C17.6522 4.23794 17.4704 4.0551 17.3046 3.91427C17.1298 3.76583 16.9079 3.60622 16.6181 3.51207L16.0001 5.41418C15.9386 5.39422 15.9299 5.37071 16.0101 5.43883C16.0993 5.51456 16.2145 5.62873 16.4242 5.83845L17.8385 4.42423ZM16 5.41418H16.0001L16.6181 3.51207C16.2164 3.38156 15.7837 3.38156 15.382 3.51207L16 5.41418ZM11.2929 8.7071L15.2929 12.7071L16.7071 11.2929L12.7071 7.29289L11.2929 8.7071Z" fill="white"/>
</svg>
