<svg width="16" height="16" viewBox="0 0 16 16" fill="none" xmlns="http://www.w3.org/2000/svg">
<path d="M4.70711 7.29288C4.31658 6.90236 3.68342 6.90236 3.29289 7.29288C2.90237 7.68341 2.90237 8.31657 3.29289 8.7071L4.70711 7.29288ZM6.82843 10.8284L6.12132 11.5355C6.30886 11.7231 6.56322 11.8284 6.82844 11.8284C7.09366 11.8284 7.34802 11.723 7.53555 11.5355L6.82843 10.8284ZM13.1921 5.87863C13.5826 5.48809 13.5826 4.85493 13.1921 4.46441C12.8015 4.0739 12.1684 4.07392 11.7779 4.46445L13.1921 5.87863ZM3.29289 8.7071L6.12132 11.5355L7.53553 10.1213L4.70711 7.29288L3.29289 8.7071ZM7.53555 11.5355L13.1921 5.87863L11.7779 4.46445L6.1213 10.1213L7.53555 11.5355Z" fill="white"/>
</svg>
