<svg width="24" height="24" viewBox="0 0 24 24" fill="none" xmlns="http://www.w3.org/2000/svg">
<path d="M17.5 8.999C16.6047 8.99862 15.7233 9.22006 14.9345 9.64353C14.8626 9.45396 14.7346 9.29077 14.5677 9.17564C14.4008 9.06052 14.2027 8.99891 14 8.999H9.99997C9.86863 8.99893 9.73856 9.02474 9.6172 9.07497C9.49584 9.1252 9.38557 9.19885 9.2927 9.29173C9.19982 9.3846 9.12617 9.49487 9.07594 9.61623C9.02571 9.73759 8.9999 9.86766 8.99997 9.999V21.999C8.99989 22.1303 9.02571 22.2604 9.07594 22.3818C9.12616 22.5031 9.19982 22.6134 9.29269 22.7063C9.38557 22.7992 9.49584 22.8728 9.6172 22.923C9.73856 22.9733 9.86863 22.9991 9.99997 22.999H14C14.1313 22.9991 14.2614 22.9733 14.3827 22.923C14.5041 22.8728 14.6144 22.7992 14.7072 22.7063C14.8001 22.6134 14.8738 22.5031 14.924 22.3818C14.9742 22.2604 15 22.1303 15 21.999V16.499C15 16.2338 15.1053 15.9794 15.2929 15.7919C15.4804 15.6044 15.7348 15.499 16 15.499C16.2652 15.499 16.5195 15.6044 16.7071 15.7919C16.8946 15.9794 17 16.2338 17 16.499V21.999C16.9999 22.1303 17.0257 22.2604 17.0759 22.3818C17.1262 22.5031 17.1998 22.6134 17.2927 22.7063C17.3856 22.7992 17.4958 22.8728 17.6172 22.923C17.7386 22.9733 17.8686 22.9991 18 22.999H22C22.1313 22.9991 22.2614 22.9733 22.3827 22.923C22.5041 22.8728 22.6144 22.7992 22.7072 22.7063C22.8001 22.6134 22.8738 22.5031 22.924 22.3818C22.9742 22.2604 23 22.1303 23 21.999V14.499C22.9982 13.0409 22.4181 11.643 21.3871 10.6119C20.356 9.58086 18.9581 9.00081 17.5 8.999ZM21 20.999H19V16.499C19 15.7034 18.6839 14.9403 18.1213 14.3777C17.5587 13.8151 16.7956 13.499 16 13.499C15.2043 13.499 14.4413 13.8151 13.8786 14.3777C13.316 14.9403 13 15.7034 13 16.499V20.999H11V10.999H13V11.7021C13.0001 11.9093 13.0645 12.1114 13.1844 12.2804C13.3043 12.4494 13.4737 12.577 13.6692 12.6456C13.8647 12.7142 14.0767 12.7204 14.2759 12.6634C14.4751 12.6063 14.6517 12.4888 14.7812 12.3271C15.23 11.7572 15.8456 11.3416 16.542 11.1384C17.2384 10.9352 17.9808 10.9545 18.6657 11.1937C19.3506 11.4329 19.9436 11.88 20.3621 12.4726C20.7806 13.0651 21.0036 13.7736 21 14.499V20.999ZM6.99997 8.999H2.99997C2.86863 8.99893 2.73856 9.02474 2.6172 9.07497C2.49584 9.1252 2.38557 9.19885 2.2927 9.29173C2.19982 9.3846 2.12617 9.49487 2.07594 9.61623C2.02571 9.73759 1.9999 9.86766 1.99997 9.999V21.999C1.99989 22.1303 2.02571 22.2604 2.07594 22.3818C2.12616 22.5031 2.19982 22.6134 2.29269 22.7063C2.38557 22.7992 2.49584 22.8728 2.6172 22.923C2.73856 22.9733 2.86863 22.9991 2.99997 22.999H6.99997C7.13131 22.9991 7.26138 22.9733 7.38274 22.923C7.5041 22.8728 7.61437 22.7992 7.70725 22.7063C7.80012 22.6134 7.87378 22.5031 7.92401 22.3818C7.97423 22.2604 8.00005 22.1303 7.99997 21.999V9.999C8.00005 9.86766 7.97423 9.73759 7.924 9.61623C7.87378 9.49487 7.80012 9.3846 7.70724 9.29173C7.61437 9.19885 7.5041 9.1252 7.38274 9.07497C7.26138 9.02474 7.13131 8.99893 6.99997 8.999ZM5.99997 20.999H3.99997V10.999H5.99997V20.999ZM5.01462 1.542C4.57698 1.5158 4.13859 1.5789 3.7261 1.72745C3.31361 1.87599 2.93564 2.10689 2.61519 2.40609C2.29473 2.7053 2.03849 3.06656 1.86203 3.4679C1.68557 3.86924 1.59259 4.30229 1.58875 4.74069C1.5849 5.1791 1.67027 5.61371 1.83966 6.01808C2.00904 6.42246 2.25891 6.78816 2.57407 7.09294C2.88922 7.39772 3.26308 7.63522 3.6729 7.79098C4.08272 7.94674 4.51994 8.01752 4.95797 7.999H4.98629C5.42509 8.02506 5.86459 7.96138 6.27795 7.81185C6.6913 7.66232 7.06983 7.43007 7.39039 7.12931C7.71096 6.82854 7.96683 6.46557 8.14238 6.06258C8.31793 5.65958 8.40946 5.22503 8.41139 4.78546C8.41332 4.34589 8.3256 3.91055 8.15359 3.50603C7.98159 3.10151 7.7289 2.73631 7.41099 2.43275C7.09307 2.12918 6.7166 1.89363 6.30457 1.74047C5.89255 1.58732 5.45362 1.51979 5.01461 1.542H5.01462ZM4.9863 5.999H4.95797C4.78504 6.02 4.60961 6.00378 4.44346 5.95143C4.27731 5.89908 4.12427 5.81181 3.99461 5.69547C3.86495 5.57912 3.76167 5.4364 3.69168 5.27688C3.6217 5.11735 3.58664 4.9447 3.58884 4.77051C3.58884 4.02441 4.14841 3.54199 5.01462 3.54199C5.18932 3.5187 5.36698 3.53312 5.53564 3.58428C5.70429 3.63543 5.86003 3.72213 5.99236 3.83854C6.12468 3.95495 6.23053 4.09837 6.30276 4.25913C6.37499 4.41989 6.41193 4.59427 6.4111 4.77051C6.4111 5.5166 5.85153 5.999 4.9863 5.999Z" fill="white"/>
</svg>
